<?xml version="1.0" encoding="UTF-8"?>
<svg xmlns="http://www.w3.org/2000/svg" xmlns:xlink="http://www.w3.org/1999/xlink" width="485.59pt" height="510.94pt" viewBox="0 0 485.59 510.94" version="1.1">
<defs>
<clipPath id="clip1">
  <path d="M 419 344 L 485.589844 344 L 485.589844 510.941406 L 419 510.941406 Z M 419 344 "/>
</clipPath>
<clipPath id="clip2">
  <path d="M 126 344 L 226 344 L 226 510.941406 L 126 510.941406 Z M 126 344 "/>
</clipPath>
<clipPath id="clip3">
  <path d="M 241 344 L 402 344 L 402 510.941406 L 241 510.941406 Z M 241 344 "/>
</clipPath>
</defs>
<g id="surface1">
<g clip-path="url(#clip1)" clip-rule="nonzero">
<path style=" stroke:none;fill-rule:nonzero;fill:rgb(0%,67.498779%,83.499146%);fill-opacity:1;" d="M 442.15625 510.832031 L 442.15625 387.394531 L 419.710938 399.0625 L 419.710938 364.980469 L 459.910156 344.164063 L 485.59375 344.164063 L 485.59375 510.832031 L 442.15625 510.832031 "/>
</g>
<g clip-path="url(#clip2)" clip-rule="nonzero">
<path style=" stroke:none;fill-rule:nonzero;fill:rgb(13.699341%,12.199402%,12.5%);fill-opacity:1;" d="M 126.558594 344.273438 L 225.300781 344.273438 L 225.300781 379.742188 L 169.980469 379.742188 L 169.980469 408.222656 L 221.808594 408.222656 L 221.808594 442.304688 L 169.980469 442.304688 L 169.980469 510.941406 L 126.558594 510.941406 L 126.558594 344.273438 "/>
</g>
<g clip-path="url(#clip3)" clip-rule="nonzero">
<path style=" stroke:none;fill-rule:nonzero;fill:rgb(13.699341%,12.199402%,12.5%);fill-opacity:1;" d="M 241.570313 344.273438 L 303.675781 344.273438 L 321.183594 443.019531 L 321.648438 443.019531 L 339.15625 344.273438 L 401.261719 344.273438 L 401.261719 510.941406 L 360.636719 510.941406 L 360.636719 386.753906 L 360.15625 386.753906 L 337.050781 510.941406 L 305.78125 510.941406 L 282.664063 386.753906 L 282.195313 386.753906 L 282.195313 510.941406 L 241.570313 510.941406 L 241.570313 344.273438 "/>
</g>
<path style=" stroke:none;fill-rule:nonzero;fill:rgb(0%,67.498779%,83.499146%);fill-opacity:1;" d="M 190.441406 205.355469 C 197.234375 203.449219 210.996094 200.742188 213.375 197.882813 C 215.773438 194.992188 220.851563 183.5 220.851563 183.5 C 220.851563 183.5 209.421875 186.777344 198.441406 189.882813 C 198.308594 192.558594 197.800781 198.164063 196.085938 198.894531 C 192.882813 200.246094 186.664063 202.28125 183.199219 200.449219 C 180.757813 199.183594 179.230469 196.726563 178.535156 195.335938 C 175.765625 196.238281 170.785156 206.808594 171.175781 208.441406 C 171.175781 208.441406 184.882813 206.828125 190.441406 205.355469 "/>
<path style=" stroke:none;fill-rule:nonzero;fill:rgb(13.699341%,12.199402%,12.5%);fill-opacity:1;" d="M 213.375 197.886719 C 210.996094 200.742188 197.222656 203.453125 190.441406 205.355469 C 184.882813 206.828125 171.175781 208.441406 171.175781 208.441406 C 170.773438 206.808594 175.777344 196.242188 178.535156 195.34375 C 179.230469 196.730469 180.757813 199.171875 183.199219 200.453125 C 186.664063 202.289063 192.882813 200.253906 196.085938 198.894531 C 197.800781 198.164063 198.308594 192.5625 198.441406 189.882813 C 209.421875 186.785156 220.839844 183.507813 220.839844 183.507813 C 220.839844 183.507813 215.761719 194.992188 213.375 197.886719 M 311.207031 179.148438 C 307.714844 179.148438 288.6875 180.992188 288.6875 180.992188 C 288.6875 180.992188 320.703125 149.929688 332.035156 138.269531 C 341.824219 128.148438 343.0625 122.144531 340.816406 118.375 C 335.800781 109.839844 252.707031 87.320313 252.707031 87.320313 L 217.867188 85.070313 L 276.476563 119.421875 L 232.769531 160.007813 C 232.769531 160.007813 219.160156 155.730469 211.519531 155.808594 C 201.847656 155.90625 160.375 167.210938 156.296875 169.179688 C 150.511719 171.945313 140.003906 180.71875 140.003906 180.71875 C 140.003906 180.71875 112.652344 187.8125 90.371094 197.730469 C 68.046875 207.632813 47.761719 219.289063 47.761719 219.289063 L 34.171875 208.441406 L 38.023438 166.730469 L 30.753906 148.605469 L 30.710938 148.507813 L 22.96875 167.210938 C 22.96875 167.210938 -2.210938 221.136719 0.15625 227.433594 C 3.738281 237.03125 30.710938 260.691406 30.710938 260.691406 C 30.710938 260.691406 30.699219 261.679688 30.699219 263.121094 L 30.710938 263.121094 C 30.710938 268.257813 31.535156 273.191406 32.976563 277.851563 C 33.011719 277.960938 33.042969 278.066406 33.074219 278.152344 C 33.53125 279.585938 34.042969 280.976563 34.605469 282.320313 C 34.660156 282.484375 34.734375 282.648438 34.800781 282.777344 C 35.367188 284.101563 35.996094 285.402344 36.679688 286.664063 C 36.753906 286.816406 36.820313 286.96875 36.894531 287.109375 C 37.644531 288.453125 38.449219 289.765625 39.292969 291.046875 C 39.316406 291.070313 39.328125 291.113281 39.359375 291.144531 C 40.183594 292.351563 41.074219 293.53125 41.996094 294.671875 C 46.1875 292.003906 50.84375 285.730469 50.84375 285.730469 C 50.84375 285.730469 45.339844 266.496094 46.066406 263.828125 C 46.523438 262.179688 51.046875 254.953125 51.046875 254.953125 C 51.046875 254.953125 76 249.542969 79.214844 248.578125 C 83.652344 247.242188 101.8125 234.207031 105.5 232.195313 C 111.589844 228.886719 132.65625 224.027344 138.832031 224.570313 C 141.4375 224.761719 150.175781 238.726563 150.175781 238.726563 C 153.820313 254.730469 154.699219 261.992188 155.058594 272.695313 C 155.308594 279.617188 155.664063 282.496094 154.785156 287.175781 C 149.21875 289.570313 140.578125 291.785156 140.578125 291.785156 L 106.414063 284.535156 L 90.792969 284.210938 L 77.421875 304.851563 L 85 301 L 96.882813 291.179688 L 139.210938 300.109375 L 151.214844 296.5625 C 143.933594 302.714844 135.042969 310.410156 129.976563 313.277344 L 307.191406 313.277344 C 309.882813 304.203125 312.011719 296.148438 312.683594 292.609375 C 314.335938 283.875 301.9375 236.574219 301.007813 233.9375 C 300.050781 231.316406 304.207031 224.769531 304.207031 224.769531 C 304.207031 224.769531 323.4375 220.734375 330.15625 217.03125 C 336.171875 213.742188 357.78125 194.664063 356.835938 191.738281 C 355.847656 188.914063 316.765625 179.148438 311.207031 179.148438 "/>
<path style=" stroke:none;fill-rule:nonzero;fill:rgb(0%,67.498779%,83.499146%);fill-opacity:1;" d="M 410.363281 0.53125 L 80.375 49.300781 C 53.078125 53.34375 30.753906 79.242188 30.753906 106.847656 L 30.753906 148.605469 L 38.023438 166.730469 L 34.183594 208.441406 L 47.761719 219.289063 C 47.761719 219.289063 68.054688 207.640625 90.359375 197.730469 C 112.652344 187.8125 140.003906 180.722656 140.003906 180.722656 C 140.003906 180.722656 150.511719 171.941406 156.296875 169.175781 C 160.375 167.210938 201.859375 155.90625 211.527344 155.808594 C 219.160156 155.726563 232.769531 160.019531 232.769531 160.019531 L 276.476563 119.414063 L 217.867188 85.0625 L 252.707031 87.332031 C 252.707031 87.332031 335.800781 109.839844 340.816406 118.386719 C 343.074219 122.152344 341.824219 128.152344 332.023438 138.269531 C 320.703125 149.925781 288.6875 180.988281 288.6875 180.988281 C 288.6875 180.988281 307.714844 179.140625 311.207031 179.140625 C 316.765625 179.140625 355.847656 188.914063 356.835938 191.75 C 357.78125 194.65625 336.183594 213.742188 330.167969 217.042969 C 323.429688 220.734375 304.21875 224.777344 304.21875 224.777344 C 304.21875 224.777344 300.0625 231.316406 301.007813 233.945313 C 301.9375 236.570313 314.335938 283.875 312.675781 292.609375 C 312.011719 296.148438 309.882813 304.214844 307.191406 313.277344 L 346.394531 313.296875 C 373.996094 313.296875 400.96875 291.136719 406.339844 264.066406 L 450.230469 42.429688 C 455.605469 15.378906 437.660156 -3.46875 410.363281 0.53125 "/>
<path style=" stroke:none;fill-rule:nonzero;fill:rgb(0%,67.498779%,83.499146%);fill-opacity:1;" d="M 56.886719 276.523438 L 54.238281 265.714844 L 72.734375 266.019531 L 80.539063 278.4375 L 66.535156 275.308594 Z M 120.175781 238.039063 L 128.71875 237.851563 L 137.246094 248.929688 L 116.277344 258.226563 L 107.738281 267.570313 L 106.109375 256.578125 Z M 129.988281 313.277344 C 135.042969 310.433594 143.933594 302.726563 151.214844 296.5625 L 139.210938 300.121094 L 96.882813 291.179688 L 85.011719 301 L 77.410156 304.851563 L 90.785156 284.210938 L 106.414063 284.535156 L 140.578125 291.785156 C 140.578125 291.785156 149.21875 289.570313 154.777344 287.175781 C 155.65625 282.496094 155.308594 279.617188 155.058594 272.695313 C 154.6875 261.992188 153.820313 254.730469 150.175781 238.738281 C 150.175781 238.738281 141.449219 224.761719 138.84375 224.570313 C 132.667969 224.027344 111.589844 228.886719 105.511719 232.195313 C 101.8125 234.207031 83.652344 247.242188 79.203125 248.578125 C 75.988281 249.542969 51.046875 254.953125 51.046875 254.953125 C 51.046875 254.953125 46.535156 262.179688 46.078125 263.828125 C 45.339844 266.496094 50.84375 285.730469 50.84375 285.730469 C 50.84375 285.730469 46.1875 292.003906 41.996094 294.671875 C 51.222656 306.015625 65.257813 313.296875 80.929688 313.296875 L 129.988281 313.277344 "/>
<path style=" stroke:none;fill-rule:nonzero;fill:rgb(13.699341%,12.199402%,12.5%);fill-opacity:1;" d="M 72.734375 266.019531 L 54.238281 265.714844 L 56.886719 276.523438 L 66.535156 275.308594 L 80.539063 278.425781 L 72.734375 266.019531 "/>
<path style=" stroke:none;fill-rule:nonzero;fill:rgb(13.699341%,12.199402%,12.5%);fill-opacity:1;" d="M 116.277344 258.238281 L 137.246094 248.929688 L 128.726563 237.855469 L 120.164063 238.039063 L 106.109375 256.578125 L 107.726563 267.570313 L 116.277344 258.238281 "/>
</g>
</svg>
